<svg xmlns:xlink="http://www.w3.org/1999/xlink" version="1.1" class="highcharts-root" style="font-family:&quot;Lucida Grande&quot;, &quot;Lucida Sans Unicode&quot;, Arial, Helvetica, sans-serif;font-size:12px;" xmlns="http://www.w3.org/2000/svg" width="610" height="430" viewBox="0 0 610 430"><desc>Created with Highcharts 6.1.0</desc><defs><clipPath id="highcharts-17a5o28-35"><rect x="0" y="0" width="440" height="260" fill="none"></rect></clipPath></defs><rect fill="#ffffff" class="highcharts-background" x="0" y="0" width="610" height="430" rx="0" ry="0"></rect><rect fill="none" class="highcharts-plot-background" x="80" y="100" width="440" height="260"></rect><g class="highcharts-pane-group"></g><g class="highcharts-plot-lines-0"><path fill="none" stroke-dasharray="none" d="M 95.5 100 L 95.5 360"></path></g><g class="highcharts-plot-lines-0"><path fill="none" stroke="#c0c0c0" stroke-width="1" stroke-dasharray="none" d="M 80 360.5 L 520 360.5"></path></g><g class="highcharts-grid highcharts-xaxis-grid "><path fill="none" stroke-dasharray="0,0" class="highcharts-grid-line" d="M 95.5 100 L 95.5 360" opacity="1"></path><path fill="none" stroke-dasharray="0,0" class="highcharts-grid-line" d="M 126.5 100 L 126.5 360" opacity="1"></path><path fill="none" stroke-dasharray="0,0" class="highcharts-grid-line" d="M 158.5 100 L 158.5 360" opacity="1"></path><path fill="none" stroke-dasharray="0,0" class="highcharts-grid-line" d="M 189.5 100 L 189.5 360" opacity="1"></path><path fill="none" stroke-dasharray="0,0" class="highcharts-grid-line" d="M 220.5 100 L 220.5 360" opacity="1"></path><path fill="none" stroke-dasharray="0,0" class="highcharts-grid-line" d="M 252.5 100 L 252.5 360" opacity="1"></path><path fill="none" stroke-dasharray="0,0" class="highcharts-grid-line" d="M 283.5 100 L 283.5 360" opacity="1"></path><path fill="none" stroke-dasharray="0,0" class="highcharts-grid-line" d="M 315.5 100 L 315.5 360" opacity="1"></path><path fill="none" stroke-dasharray="0,0" class="highcharts-grid-line" d="M 346.5 100 L 346.5 360" opacity="1"></path><path fill="none" stroke-dasharray="0,0" class="highcharts-grid-line" d="M 378.5 100 L 378.5 360" opacity="1"></path><path fill="none" stroke-dasharray="0,0" class="highcharts-grid-line" d="M 409.5 100 L 409.5 360" opacity="1"></path><path fill="none" stroke-dasharray="0,0" class="highcharts-grid-line" d="M 440.5 100 L 440.5 360" opacity="1"></path><path fill="none" stroke-dasharray="0,0" class="highcharts-grid-line" d="M 472.5 100 L 472.5 360" opacity="1"></path><path fill="none" stroke-dasharray="0,0" class="highcharts-grid-line" d="M 503.5 100 L 503.5 360" opacity="1"></path></g><g class="highcharts-grid highcharts-yaxis-grid "><path fill="none" stroke="#c0c0c0" stroke-width="1" stroke-dasharray="1,3" class="highcharts-grid-line" d="M 80 360.5 L 520 360.5" opacity="1"></path><path fill="none" stroke="#c0c0c0" stroke-width="1" stroke-dasharray="1,3" class="highcharts-grid-line" d="M 80 323.5 L 520 323.5" opacity="1"></path><path fill="none" stroke="#c0c0c0" stroke-width="1" stroke-dasharray="1,3" class="highcharts-grid-line" d="M 80 286.5 L 520 286.5" opacity="1"></path><path fill="none" stroke="#c0c0c0" stroke-width="1" stroke-dasharray="1,3" class="highcharts-grid-line" d="M 80 249.5 L 520 249.5" opacity="1"></path><path fill="none" stroke="#c0c0c0" stroke-width="1" stroke-dasharray="1,3" class="highcharts-grid-line" d="M 80 211.5 L 520 211.5" opacity="1"></path><path fill="none" stroke="#c0c0c0" stroke-width="1" stroke-dasharray="1,3" class="highcharts-grid-line" d="M 80 174.5 L 520 174.5" opacity="1"></path><path fill="none" stroke="#c0c0c0" stroke-width="1" stroke-dasharray="1,3" class="highcharts-grid-line" d="M 80 137.5 L 520 137.5" opacity="1"></path><path fill="none" stroke="#c0c0c0" stroke-width="1" stroke-dasharray="1,3" class="highcharts-grid-line" d="M 80 99.5 L 520 99.5" opacity="1"></path></g><g class="highcharts-grid highcharts-yaxis-grid "><path fill="none" stroke="#e6e6e6" stroke-width="1" class="highcharts-grid-line" d="M 80 360.5 L 520 360.5" opacity="1"></path><path fill="none" stroke="#e6e6e6" stroke-width="1" class="highcharts-grid-line" d="M 80 323.5 L 520 323.5" opacity="1"></path><path fill="none" stroke="#e6e6e6" stroke-width="1" class="highcharts-grid-line" d="M 80 286.5 L 520 286.5" opacity="1"></path><path fill="none" stroke="#e6e6e6" stroke-width="1" class="highcharts-grid-line" d="M 80 249.5 L 520 249.5" opacity="1"></path><path fill="none" stroke="#e6e6e6" stroke-width="1" class="highcharts-grid-line" d="M 80 211.5 L 520 211.5" opacity="1"></path><path fill="none" stroke="#e6e6e6" stroke-width="1" class="highcharts-grid-line" d="M 80 174.5 L 520 174.5" opacity="1"></path><path fill="none" stroke="#e6e6e6" stroke-width="1" class="highcharts-grid-line" d="M 80 137.5 L 520 137.5" opacity="1"></path><path fill="none" stroke="#e6e6e6" stroke-width="1" class="highcharts-grid-line" d="M 80 99.5 L 520 99.5" opacity="1"></path></g><rect fill="none" class="highcharts-plot-border" x="80" y="100" width="440" height="260"></rect><g class="highcharts-axis highcharts-xaxis "><path fill="none" class="highcharts-tick" stroke="#C0D0E0" stroke-width="1" d="M 95.5 360 L 95.5 370" opacity="1"></path><path fill="none" class="highcharts-tick" stroke="#C0D0E0" stroke-width="1" d="M 126.5 360 L 126.5 370" opacity="1"></path><path fill="none" class="highcharts-tick" stroke="#C0D0E0" stroke-width="1" d="M 158.5 360 L 158.5 370" opacity="1"></path><path fill="none" class="highcharts-tick" stroke="#C0D0E0" stroke-width="1" d="M 189.5 360 L 189.5 370" opacity="1"></path><path fill="none" class="highcharts-tick" stroke="#C0D0E0" stroke-width="1" d="M 220.5 360 L 220.5 370" opacity="1"></path><path fill="none" class="highcharts-tick" stroke="#C0D0E0" stroke-width="1" d="M 252.5 360 L 252.5 370" opacity="1"></path><path fill="none" class="highcharts-tick" stroke="#C0D0E0" stroke-width="1" d="M 283.5 360 L 283.5 370" opacity="1"></path><path fill="none" class="highcharts-tick" stroke="#C0D0E0" stroke-width="1" d="M 315.5 360 L 315.5 370" opacity="1"></path><path fill="none" class="highcharts-tick" stroke="#C0D0E0" stroke-width="1" d="M 346.5 360 L 346.5 370" opacity="1"></path><path fill="none" class="highcharts-tick" stroke="#C0D0E0" stroke-width="1" d="M 378.5 360 L 378.5 370" opacity="1"></path><path fill="none" class="highcharts-tick" stroke="#C0D0E0" stroke-width="1" d="M 409.5 360 L 409.5 370" opacity="1"></path><path fill="none" class="highcharts-tick" stroke="#C0D0E0" stroke-width="1" d="M 440.5 360 L 440.5 370" opacity="1"></path><path fill="none" class="highcharts-tick" stroke="#C0D0E0" stroke-width="1" d="M 472.5 360 L 472.5 370" opacity="1"></path><path fill="none" class="highcharts-tick" stroke="#C0D0E0" stroke-width="1" d="M 503.5 360 L 503.5 370" opacity="1"></path><path fill="none" class="highcharts-axis-line" stroke="gray" stroke-width="1.2" d="M 80 360.6 L 520 360.6"></path></g><g class="highcharts-axis highcharts-yaxis "><path fill="none" class="highcharts-tick" stroke="#C0D0E0" stroke-width="1" d="M 80 360.5 L 70 360.5" opacity="1"></path><path fill="none" class="highcharts-tick" stroke="#C0D0E0" stroke-width="1" d="M 80 323.5 L 70 323.5" opacity="1"></path><path fill="none" class="highcharts-tick" stroke="#C0D0E0" stroke-width="1" d="M 80 286.5 L 70 286.5" opacity="1"></path><path fill="none" class="highcharts-tick" stroke="#C0D0E0" stroke-width="1" d="M 80 249.5 L 70 249.5" opacity="1"></path><path fill="none" class="highcharts-tick" stroke="#C0D0E0" stroke-width="1" d="M 80 211.5 L 70 211.5" opacity="1"></path><path fill="none" class="highcharts-tick" stroke="#C0D0E0" stroke-width="1" d="M 80 174.5 L 70 174.5" opacity="1"></path><path fill="none" class="highcharts-tick" stroke="#C0D0E0" stroke-width="1" d="M 80 137.5 L 70 137.5" opacity="1"></path><path fill="none" class="highcharts-tick" stroke="#C0D0E0" stroke-width="1" d="M 80 99.5 L 70 99.5" opacity="1"></path><text x="140" text-anchor="end" transform="translate(0,0)" class="highcharts-axis-title" style="color:#000000;font-family:Calibri, Arial, Helvetica, sans-serif;font-weight:normal;font-size:13px;fill:#000000;" y="80"><tspan>Truck driver employment</tspan></text><path fill="none" class="highcharts-axis-line" stroke="gray" stroke-width="1" d="M 79.5 100 L 79.5 360"></path></g><g class="highcharts-axis highcharts-yaxis "><path fill="none" class="highcharts-tick" stroke="#C0D0E0" stroke-width="1" d="M 520 360.5 L 530 360.5" opacity="1"></path><path fill="none" class="highcharts-tick" stroke="#C0D0E0" stroke-width="1" d="M 520 323.5 L 530 323.5" opacity="1"></path><path fill="none" class="highcharts-tick" stroke="#C0D0E0" stroke-width="1" d="M 520 286.5 L 530 286.5" opacity="1"></path><path fill="none" class="highcharts-tick" stroke="#C0D0E0" stroke-width="1" d="M 520 249.5 L 530 249.5" opacity="1"></path><path fill="none" class="highcharts-tick" stroke="#C0D0E0" stroke-width="1" d="M 520 211.5 L 530 211.5" opacity="1"></path><path fill="none" class="highcharts-tick" stroke="#C0D0E0" stroke-width="1" d="M 520 174.5 L 530 174.5" opacity="1"></path><path fill="none" class="highcharts-tick" stroke="#C0D0E0" stroke-width="1" d="M 520 137.5 L 530 137.5" opacity="1"></path><path fill="none" class="highcharts-tick" stroke="#C0D0E0" stroke-width="1" d="M 520 99.5 L 530 99.5" opacity="1"></path><text x="465" text-anchor="start" transform="translate(0,0)" class="highcharts-axis-title" style="color:#000000;font-family:Calibri, Arial, Helvetica, sans-serif;font-weight:normal;font-size:13px;fill:#000000;" y="85"><tspan>Blue-collar employment</tspan></text><path fill="none" class="highcharts-axis-line" stroke="gray" stroke-width="1" d="M 520.5 100 L 520.5 360"></path></g><g class="highcharts-series-group"><g class="highcharts-series highcharts-series-0 highcharts-line-series " transform="translate(80,100) scale(1 1)" clip-path="url(#highcharts-17a5o28-35)"><path fill="none" d="M 15.714285714286 146.44462857142855 L 47.142857142857 144.6068 L 78.571428571429 139.30502857142858 L 110 135.6494285714286 L 141.42857142857 134.19045714285716 L 172.85714285714 135.75119999999998 L 204.28571428571 144.78805714285716 L 235.71428571429 151.0421714285714 L 267.14285714286 147.9310857142857 L 298.57142857143 144.37354285714287 L 330 142.23485714285715 L 361.42857142857 139.26417142857144 L 392.85714285714 135.32777142857142 L 424.28571428571 133.3785142857143" class="highcharts-graph" stroke="rgb(0, 0, 153)" stroke-width="1.5" stroke-linejoin="round" stroke-linecap="round"></path></g><g class="highcharts-markers highcharts-series-0 highcharts-line-series " transform="translate(80,100) scale(1 1)" clip-path="none"></g><g class="highcharts-series highcharts-series-1 highcharts-line-series " transform="translate(80,100) scale(1 1)" clip-path="url(#highcharts-17a5o28-35)"><path fill="none" d="M 15.714285714286 161.6486857142857 L 47.142857142857 160.03817142857145 L 78.571428571429 160.54554285714283 L 110 160.58565714285714 L 141.42857142857 163.03782857142858 L 172.85714285714 164.78948571428572 L 204.28571428571 171.01834285714284 L 235.71428571429 174.42805714285714 L 267.14285714286 173.89097142857145 L 298.57142857143 173.5968 L 330 172.83314285714286 L 361.42857142857 170.64765714285716 L 392.85714285714 167.57594285714285 L 424.28571428571 164.54137142857144" class="highcharts-graph" stroke="rgb(0,102,204)" stroke-width="1.5" stroke-linejoin="round" stroke-linecap="round"></path></g><g class="highcharts-markers highcharts-series-1 highcharts-line-series " transform="translate(80,100) scale(1 1)" clip-path="none"></g><g class="highcharts-series highcharts-series-2 highcharts-line-series " transform="translate(80,100) scale(1 1)" clip-path="url(#highcharts-17a5o28-35)"><path fill="none" d="M 15.714285714286 49.30810857142859 L 47.142857142857 50.541697142857146 L 78.571428571429 47.86785714285716 L 110 45.037571428571425 L 141.42857142857 45.49977714285714 L 172.85714285714 49.049222857142865 L 204.28571428571 67.68282857142859 L 235.71428571429 80.47267428571428 L 267.14285714286 79.63554857142859 L 298.57142857143 77.00375428571428 L 330 72.51949714285715 L 361.42857142857 67.6728742857143 L 392.85714285714 62.850022857142875 L 424.28571428571 60.24601142857142" class="highcharts-graph" stroke="rgb(153,0,0)" stroke-width="1.5" stroke-linejoin="round" stroke-linecap="round"></path></g><g class="highcharts-markers highcharts-series-2 highcharts-line-series " transform="translate(80,100) scale(1 1)" clip-path="none"></g></g><g class="highcharts-button highcharts-contextbutton" style="cursor:pointer;" stroke-linecap="round" transform="translate(575,405)"><title>Download chart image</title><rect fill="#ffffff" class=" highcharts-button-box" x="0.5" y="0.5" width="24" height="24" rx="2" ry="2" stroke="none" stroke-width="1"></rect><path fill="#666666" d="M 12 2 L 14 2 L 14 9 L 18 9 L 13 14 L 8 9 L 12 9 z M 3 16.9 L 3 21 L 22 21 L 22 17 L 22 17 L 22 21 L 3 21 L 3 16.9 z" class="highcharts-button-symbol" stroke="#666666" stroke-width="2"></path><text x="0" style="font-weight:normal;color:#333333;fill:#333333;" y="12"></text></g><text x="10" text-anchor="start" class="highcharts-title" style="color:#000000;font-size:14px;font-family:arial;font-weight:bold;fill:#000000;" y="21"><tspan>Figure 1. Employment of truck drivers and blue-collar workers, 2003–16</tspan></text><text x="10" text-anchor="start" class="highcharts-subtitle" style="color:#000000;font-family:arial;font-weight:normal;font-size:12px;fill:#000000;" y="40"></text><g class="highcharts-legend" transform="translate(60,25)"><rect fill="none" class="highcharts-legend-box" rx="0" ry="0" x="0" y="0" width="558" height="39" visibility="visible"></rect><g><g><g class="highcharts-legend-item highcharts-line-series highcharts-color-undefined highcharts-series-0" transform="translate(8,3)"><path fill="none" d="M 0 11 L 16 11" class="highcharts-graph" stroke="rgb(0, 0, 153)" stroke-width="1.5"></path><text x="21" style="color:#000;font-size:12px;font-weight:bold;cursor:pointer;font-family:Calibri, Arial, Helvetica, sans-serif;fill:#000;" text-anchor="start" y="15"><tspan>Heavy truck drivers</tspan></text></g><g class="highcharts-legend-item highcharts-line-series highcharts-color-undefined highcharts-series-1" transform="translate(170.40625,3)"><path fill="none" d="M 0 11 L 16 11" class="highcharts-graph" stroke="rgb(0,102,204)" stroke-width="1.5"></path><text x="21" y="15" style="color:#000;font-size:12px;font-weight:bold;cursor:pointer;font-family:Calibri, Arial, Helvetica, sans-serif;fill:#000;" text-anchor="start"><tspan>Light or delivery truck drivers and driver/sales workers</tspan></text></g><g class="highcharts-legend-item highcharts-line-series highcharts-color-undefined highcharts-series-2" transform="translate(8,17)"><path fill="none" d="M 0 11 L 16 11" class="highcharts-graph" stroke="rgb(153,0,0)" stroke-width="1.5"></path><text x="21" y="15" style="color:#000;font-size:12px;font-weight:bold;cursor:pointer;font-family:Calibri, Arial, Helvetica, sans-serif;fill:#000;" text-anchor="start"><tspan>Blue-collar workers (excluding truck drivers)</tspan></text></g></g></g></g><g class="highcharts-axis-labels highcharts-xaxis-labels "><text x="95.714285714286" style="color:#000000;cursor:default;font-size:12px;font-family:Calibri, Arial, Helvetica, sans-serif;font-weight:normal;background-color:#fff;fill:#000000;" text-anchor="middle" transform="translate(0,0)" y="380" opacity="1">2003</text><text x="127.14285714286" style="color:#000000;cursor:default;font-size:12px;font-family:Calibri, Arial, Helvetica, sans-serif;font-weight:normal;background-color:#fff;fill:#000000;" text-anchor="middle" transform="translate(0,0)" y="380" opacity="1">2004</text><text x="158.57142857143" style="color:#000000;cursor:default;font-size:12px;font-family:Calibri, Arial, Helvetica, sans-serif;font-weight:normal;background-color:#fff;fill:#000000;" text-anchor="middle" transform="translate(0,0)" y="380" opacity="1">2005</text><text x="190" style="color:#000000;cursor:default;font-size:12px;font-family:Calibri, Arial, Helvetica, sans-serif;font-weight:normal;background-color:#fff;fill:#000000;" text-anchor="middle" transform="translate(0,0)" y="380" opacity="1">2006</text><text x="221.42857142857" style="color:#000000;cursor:default;font-size:12px;font-family:Calibri, Arial, Helvetica, sans-serif;font-weight:normal;background-color:#fff;fill:#000000;" text-anchor="middle" transform="translate(0,0)" y="380" opacity="1">2007</text><text x="252.85714285714" style="color:#000000;cursor:default;font-size:12px;font-family:Calibri, Arial, Helvetica, sans-serif;font-weight:normal;background-color:#fff;fill:#000000;" text-anchor="middle" transform="translate(0,0)" y="380" opacity="1">2008</text><text x="284.28571428571" style="color:#000000;cursor:default;font-size:12px;font-family:Calibri, Arial, Helvetica, sans-serif;font-weight:normal;background-color:#fff;fill:#000000;" text-anchor="middle" transform="translate(0,0)" y="380" opacity="1">2009</text><text x="315.71428571429" style="color:#000000;cursor:default;font-size:12px;font-family:Calibri, Arial, Helvetica, sans-serif;font-weight:normal;background-color:#fff;fill:#000000;" text-anchor="middle" transform="translate(0,0)" y="380" opacity="1">2010</text><text x="347.14285714286" style="color:#000000;cursor:default;font-size:12px;font-family:Calibri, Arial, Helvetica, sans-serif;font-weight:normal;background-color:#fff;fill:#000000;" text-anchor="middle" transform="translate(0,0)" y="380" opacity="1">2011</text><text x="378.57142857143" style="color:#000000;cursor:default;font-size:12px;font-family:Calibri, Arial, Helvetica, sans-serif;font-weight:normal;background-color:#fff;fill:#000000;" text-anchor="middle" transform="translate(0,0)" y="380" opacity="1">2012</text><text x="410" style="color:#000000;cursor:default;font-size:12px;font-family:Calibri, Arial, Helvetica, sans-serif;font-weight:normal;background-color:#fff;fill:#000000;" text-anchor="middle" transform="translate(0,0)" y="380" opacity="1">2013</text><text x="441.42857142857" style="color:#000000;cursor:default;font-size:12px;font-family:Calibri, Arial, Helvetica, sans-serif;font-weight:normal;background-color:#fff;fill:#000000;" text-anchor="middle" transform="translate(0,0)" y="380" opacity="1">2014</text><text x="472.85714285714" style="color:#000000;cursor:default;font-size:12px;font-family:Calibri, Arial, Helvetica, sans-serif;font-weight:normal;background-color:#fff;fill:#000000;" text-anchor="middle" transform="translate(0,0)" y="380" opacity="1">2015</text><text x="504.28571428571" style="color:#000000;cursor:default;font-size:12px;font-family:Calibri, Arial, Helvetica, sans-serif;font-weight:normal;background-color:#fff;fill:#000000;" text-anchor="middle" transform="translate(0,0)" y="380" opacity="1">2016</text></g><g class="highcharts-axis-labels highcharts-yaxis-labels "><text x="65" style="color:#000000;cursor:default;font-size:12px;font-family:Calibri, Arial, Helvetica, sans-serif;font-weight:normal;background-color:#fff;fill:#000000;" text-anchor="end" transform="translate(0,0)" y="365" opacity="1">0</text><text x="65" style="color:#000000;cursor:default;font-size:12px;font-family:Calibri, Arial, Helvetica, sans-serif;font-weight:normal;background-color:#fff;fill:#000000;" text-anchor="end" transform="translate(0,0)" y="328" opacity="1">500,000</text><text x="65" style="color:#000000;cursor:default;font-size:12px;font-family:Calibri, Arial, Helvetica, sans-serif;font-weight:normal;background-color:#fff;fill:#000000;" text-anchor="end" transform="translate(0,0)" y="291" opacity="1">1,000,000</text><text x="65" style="color:#000000;cursor:default;font-size:12px;font-family:Calibri, Arial, Helvetica, sans-serif;font-weight:normal;background-color:#fff;fill:#000000;" text-anchor="end" transform="translate(0,0)" y="254" opacity="1">1,500,000</text><text x="65" style="color:#000000;cursor:default;font-size:12px;font-family:Calibri, Arial, Helvetica, sans-serif;font-weight:normal;background-color:#fff;fill:#000000;" text-anchor="end" transform="translate(0,0)" y="217" opacity="1">2,000,000</text><text x="65" style="color:#000000;cursor:default;font-size:12px;font-family:Calibri, Arial, Helvetica, sans-serif;font-weight:normal;background-color:#fff;fill:#000000;" text-anchor="end" transform="translate(0,0)" y="180" opacity="1">2,500,000</text><text x="65" style="color:#000000;cursor:default;font-size:12px;font-family:Calibri, Arial, Helvetica, sans-serif;font-weight:normal;background-color:#fff;fill:#000000;" text-anchor="end" transform="translate(0,0)" y="142" opacity="1">3,000,000</text><text x="65" style="color:#000000;cursor:default;font-size:12px;font-family:Calibri, Arial, Helvetica, sans-serif;font-weight:normal;background-color:#fff;fill:#000000;" text-anchor="end" transform="translate(0,0)" y="105" opacity="1">3,500,000</text></g><g class="highcharts-axis-labels highcharts-yaxis-labels "><text x="535" style="color:#666666;cursor:default;font-size:11px;fill:#666666;" text-anchor="start" transform="translate(0,0)" y="365" opacity="1">0</text><text x="535" style="color:#666666;cursor:default;font-size:11px;fill:#666666;" text-anchor="start" transform="translate(0,0)" y="327" opacity="1">5,000,000</text><text x="535" style="color:#666666;cursor:default;font-size:11px;fill:#666666;" text-anchor="start" transform="translate(0,0)" y="290" opacity="1"><tspan>10,000,000</tspan></text><text x="535" style="color:#666666;cursor:default;font-size:11px;fill:#666666;" text-anchor="start" transform="translate(0,0)" y="253" opacity="1"><tspan>15,000,000</tspan></text><text x="535" style="color:#666666;cursor:default;font-size:11px;fill:#666666;" text-anchor="start" transform="translate(0,0)" y="216" opacity="1"><tspan>20,000,000</tspan></text><text x="535" style="color:#666666;cursor:default;font-size:11px;fill:#666666;" text-anchor="start" transform="translate(0,0)" y="179" opacity="1"><tspan>25,000,000</tspan></text><text x="535" style="color:#666666;cursor:default;font-size:11px;fill:#666666;" text-anchor="start" transform="translate(0,0)" y="142" opacity="1"><tspan>30,000,000</tspan></text><text x="535" style="color:#666666;cursor:default;font-size:11px;fill:#666666;" text-anchor="start" transform="translate(0,0)" y="105" opacity="1"><tspan>35,000,000</tspan></text></g><text x="10" class="highcharts-credits" text-anchor="start" style="cursor:default;color:#2C2C2C;font-size:9px;fill:#2C2C2C;" y="408"><tspan>Click legend items to change data display. Hover over chart to view data.</tspan><tspan x="10" dy="12">Source: Authors' calculations based on data from the Occupational Employment Statistics survey.</tspan></text></svg>