<svg xmlns:xlink="http://www.w3.org/1999/xlink" version="1.1" class="highcharts-root" style="font-family:&quot;Lucida Grande&quot;, &quot;Lucida Sans Unicode&quot;, Arial, Helvetica, sans-serif;font-size:12px;" xmlns="http://www.w3.org/2000/svg" width="610" height="430" viewBox="0 0 610 430"><desc>Created with Highcharts 6.1.0</desc><defs><clipPath id="highcharts-17a5o28-49"><rect x="0" y="0" width="520" height="280" fill="none"></rect></clipPath></defs><rect fill="#ffffff" class="highcharts-background" x="0" y="0" width="610" height="430" rx="0" ry="0"></rect><rect fill="none" class="highcharts-plot-background" x="50" y="80" width="520" height="280"></rect><g class="highcharts-pane-group"></g><g class="highcharts-plot-lines-0"><path fill="none" stroke-dasharray="none" d="M 68.5 80 L 68.5 360"></path></g><g class="highcharts-plot-lines-0"><path fill="none" stroke="#c0c0c0" stroke-width="1" stroke-dasharray="none" d="M 50 360.5 L 570 360.5"></path></g><g class="highcharts-grid highcharts-xaxis-grid "><path fill="none" stroke-dasharray="0,0" class="highcharts-grid-line" d="M 68.5 80 L 68.5 360" opacity="1"></path><path fill="none" stroke-dasharray="0,0" class="highcharts-grid-line" d="M 105.5 80 L 105.5 360" opacity="1"></path><path fill="none" stroke-dasharray="0,0" class="highcharts-grid-line" d="M 142.5 80 L 142.5 360" opacity="1"></path><path fill="none" stroke-dasharray="0,0" class="highcharts-grid-line" d="M 179.5 80 L 179.5 360" opacity="1"></path><path fill="none" stroke-dasharray="0,0" class="highcharts-grid-line" d="M 216.5 80 L 216.5 360" opacity="1"></path><path fill="none" stroke-dasharray="0,0" class="highcharts-grid-line" d="M 253.5 80 L 253.5 360" opacity="1"></path><path fill="none" stroke-dasharray="0,0" class="highcharts-grid-line" d="M 290.5 80 L 290.5 360" opacity="1"></path><path fill="none" stroke-dasharray="0,0" class="highcharts-grid-line" d="M 328.5 80 L 328.5 360" opacity="1"></path><path fill="none" stroke-dasharray="0,0" class="highcharts-grid-line" d="M 365.5 80 L 365.5 360" opacity="1"></path><path fill="none" stroke-dasharray="0,0" class="highcharts-grid-line" d="M 402.5 80 L 402.5 360" opacity="1"></path><path fill="none" stroke-dasharray="0,0" class="highcharts-grid-line" d="M 439.5 80 L 439.5 360" opacity="1"></path><path fill="none" stroke-dasharray="0,0" class="highcharts-grid-line" d="M 476.5 80 L 476.5 360" opacity="1"></path><path fill="none" stroke-dasharray="0,0" class="highcharts-grid-line" d="M 513.5 80 L 513.5 360" opacity="1"></path><path fill="none" stroke-dasharray="0,0" class="highcharts-grid-line" d="M 550.5 80 L 550.5 360" opacity="1"></path></g><g class="highcharts-grid highcharts-yaxis-grid "><path fill="none" stroke="#c0c0c0" stroke-width="1" stroke-dasharray="1,3" class="highcharts-grid-line" d="M 50 360.5 L 570 360.5" opacity="1"></path><path fill="none" stroke="#c0c0c0" stroke-width="1" stroke-dasharray="1,3" class="highcharts-grid-line" d="M 50 329.5 L 570 329.5" opacity="1"></path><path fill="none" stroke="#c0c0c0" stroke-width="1" stroke-dasharray="1,3" class="highcharts-grid-line" d="M 50 298.5 L 570 298.5" opacity="1"></path><path fill="none" stroke="#c0c0c0" stroke-width="1" stroke-dasharray="1,3" class="highcharts-grid-line" d="M 50 267.5 L 570 267.5" opacity="1"></path><path fill="none" stroke="#c0c0c0" stroke-width="1" stroke-dasharray="1,3" class="highcharts-grid-line" d="M 50 236.5 L 570 236.5" opacity="1"></path><path fill="none" stroke="#c0c0c0" stroke-width="1" stroke-dasharray="1,3" class="highcharts-grid-line" d="M 50 204.5 L 570 204.5" opacity="1"></path><path fill="none" stroke="#c0c0c0" stroke-width="1" stroke-dasharray="1,3" class="highcharts-grid-line" d="M 50 173.5 L 570 173.5" opacity="1"></path><path fill="none" stroke="#c0c0c0" stroke-width="1" stroke-dasharray="1,3" class="highcharts-grid-line" d="M 50 142.5 L 570 142.5" opacity="1"></path><path fill="none" stroke="#c0c0c0" stroke-width="1" stroke-dasharray="1,3" class="highcharts-grid-line" d="M 50 111.5 L 570 111.5" opacity="1"></path><path fill="none" stroke="#c0c0c0" stroke-width="1" stroke-dasharray="1,3" class="highcharts-grid-line" d="M 50 79.5 L 570 79.5" opacity="1"></path></g><rect fill="none" class="highcharts-plot-border" x="50" y="80" width="520" height="280"></rect><g class="highcharts-axis highcharts-xaxis "><path fill="none" class="highcharts-tick" stroke="#C0D0E0" stroke-width="1" d="M 68.5 360 L 68.5 370" opacity="1"></path><path fill="none" class="highcharts-tick" stroke="#C0D0E0" stroke-width="1" d="M 105.5 360 L 105.5 370" opacity="1"></path><path fill="none" class="highcharts-tick" stroke="#C0D0E0" stroke-width="1" d="M 142.5 360 L 142.5 370" opacity="1"></path><path fill="none" class="highcharts-tick" stroke="#C0D0E0" stroke-width="1" d="M 179.5 360 L 179.5 370" opacity="1"></path><path fill="none" class="highcharts-tick" stroke="#C0D0E0" stroke-width="1" d="M 216.5 360 L 216.5 370" opacity="1"></path><path fill="none" class="highcharts-tick" stroke="#C0D0E0" stroke-width="1" d="M 253.5 360 L 253.5 370" opacity="1"></path><path fill="none" class="highcharts-tick" stroke="#C0D0E0" stroke-width="1" d="M 290.5 360 L 290.5 370" opacity="1"></path><path fill="none" class="highcharts-tick" stroke="#C0D0E0" stroke-width="1" d="M 328.5 360 L 328.5 370" opacity="1"></path><path fill="none" class="highcharts-tick" stroke="#C0D0E0" stroke-width="1" d="M 365.5 360 L 365.5 370" opacity="1"></path><path fill="none" class="highcharts-tick" stroke="#C0D0E0" stroke-width="1" d="M 402.5 360 L 402.5 370" opacity="1"></path><path fill="none" class="highcharts-tick" stroke="#C0D0E0" stroke-width="1" d="M 439.5 360 L 439.5 370" opacity="1"></path><path fill="none" class="highcharts-tick" stroke="#C0D0E0" stroke-width="1" d="M 476.5 360 L 476.5 370" opacity="1"></path><path fill="none" class="highcharts-tick" stroke="#C0D0E0" stroke-width="1" d="M 513.5 360 L 513.5 370" opacity="1"></path><path fill="none" class="highcharts-tick" stroke="#C0D0E0" stroke-width="1" d="M 550.5 360 L 550.5 370" opacity="1"></path><path fill="none" class="highcharts-axis-line" stroke="gray" stroke-width="1.2" d="M 50 360.6 L 570 360.6"></path></g><g class="highcharts-axis highcharts-yaxis "><path fill="none" class="highcharts-tick" stroke="#C0D0E0" stroke-width="1" d="M 50 360.5 L 40 360.5" opacity="1"></path><path fill="none" class="highcharts-tick" stroke="#C0D0E0" stroke-width="1" d="M 50 329.5 L 40 329.5" opacity="1"></path><path fill="none" class="highcharts-tick" stroke="#C0D0E0" stroke-width="1" d="M 50 298.5 L 40 298.5" opacity="1"></path><path fill="none" class="highcharts-tick" stroke="#C0D0E0" stroke-width="1" d="M 50 267.5 L 40 267.5" opacity="1"></path><path fill="none" class="highcharts-tick" stroke="#C0D0E0" stroke-width="1" d="M 50 236.5 L 40 236.5" opacity="1"></path><path fill="none" class="highcharts-tick" stroke="#C0D0E0" stroke-width="1" d="M 50 204.5 L 40 204.5" opacity="1"></path><path fill="none" class="highcharts-tick" stroke="#C0D0E0" stroke-width="1" d="M 50 173.5 L 40 173.5" opacity="1"></path><path fill="none" class="highcharts-tick" stroke="#C0D0E0" stroke-width="1" d="M 50 142.5 L 40 142.5" opacity="1"></path><path fill="none" class="highcharts-tick" stroke="#C0D0E0" stroke-width="1" d="M 50 111.5 L 40 111.5" opacity="1"></path><path fill="none" class="highcharts-tick" stroke="#C0D0E0" stroke-width="1" d="M 50 79.5 L 40 79.5" opacity="1"></path><text x="65" text-anchor="end" transform="translate(0,0)" class="highcharts-axis-title" style="color:#000000;font-family:Calibri, Arial, Helvetica, sans-serif;font-weight:normal;font-size:13px;fill:#000000;" y="60"><tspan>Percent</tspan></text><path fill="none" class="highcharts-axis-line" stroke="gray" stroke-width="1" d="M 49.5 80 L 49.5 360"></path></g><g class="highcharts-series-group"><g class="highcharts-series highcharts-series-0 highcharts-column-series " transform="translate(50,80) scale(1 1)" clip-path="url(#highcharts-17a5o28-49)"><rect x="8.5" y="22.5" width="9" height="258" fill="rgb(0, 0, 153)" stroke="#ffffff" stroke-width="1" class="highcharts-point"></rect><rect x="45.5" y="17.5" width="9" height="263" fill="rgb(0, 0, 153)" stroke="#ffffff" stroke-width="1" class="highcharts-point"></rect><rect x="82.5" y="20.5" width="9" height="260" fill="rgb(0, 0, 153)" stroke="#ffffff" stroke-width="1" class="highcharts-point"></rect><rect x="119.5" y="26.5" width="9" height="254" fill="rgb(0, 0, 153)" stroke="#ffffff" stroke-width="1" class="highcharts-point"></rect><rect x="156.5" y="25.5" width="9" height="255" fill="rgb(0, 0, 153)" stroke="#ffffff" stroke-width="1" class="highcharts-point"></rect><rect x="193.5" y="29.5" width="9" height="251" fill="rgb(0, 0, 153)" stroke="#ffffff" stroke-width="1" class="highcharts-point"></rect><rect x="230.5" y="23.5" width="9" height="257" fill="rgb(0, 0, 153)" stroke="#ffffff" stroke-width="1" class="highcharts-point"></rect><rect x="268.5" y="35.5" width="9" height="245" fill="rgb(0, 0, 153)" stroke="#ffffff" stroke-width="1" class="highcharts-point"></rect><rect x="305.5" y="26.5" width="9" height="254" fill="rgb(0, 0, 153)" stroke="#ffffff" stroke-width="1" class="highcharts-point"></rect><rect x="342.5" y="25.5" width="9" height="255" fill="rgb(0, 0, 153)" stroke="#ffffff" stroke-width="1" class="highcharts-point"></rect><rect x="379.5" y="32.5" width="9" height="248" fill="rgb(0, 0, 153)" stroke="#ffffff" stroke-width="1" class="highcharts-point"></rect><rect x="416.5" y="28.5" width="9" height="252" fill="rgb(0, 0, 153)" stroke="#ffffff" stroke-width="1" class="highcharts-point"></rect><rect x="453.5" y="27.5" width="9" height="253" fill="rgb(0, 0, 153)" stroke="#ffffff" stroke-width="1" class="highcharts-point"></rect><rect x="490.5" y="39.5" width="9" height="241" fill="rgb(0, 0, 153)" stroke="#ffffff" stroke-width="1" class="highcharts-point"></rect></g><g class="highcharts-markers highcharts-series-0 highcharts-column-series " transform="translate(50,80) scale(1 1)" clip-path="none"></g><g class="highcharts-series highcharts-series-1 highcharts-column-series " transform="translate(50,80) scale(1 1)" clip-path="url(#highcharts-17a5o28-49)"><rect x="19.5" y="63.5" width="9" height="217" fill="rgb(153, 0, 0)" stroke="#ffffff" stroke-width="1" class="highcharts-point"></rect><rect x="56.5" y="52.5" width="9" height="228" fill="rgb(153, 0, 0)" stroke="#ffffff" stroke-width="1" class="highcharts-point"></rect><rect x="93.5" y="63.5" width="9" height="217" fill="rgb(153, 0, 0)" stroke="#ffffff" stroke-width="1" class="highcharts-point"></rect><rect x="130.5" y="58.5" width="9" height="222" fill="rgb(153, 0, 0)" stroke="#ffffff" stroke-width="1" class="highcharts-point"></rect><rect x="167.5" y="59.5" width="9" height="221" fill="rgb(153, 0, 0)" stroke="#ffffff" stroke-width="1" class="highcharts-point"></rect><rect x="204.5" y="55.5" width="9" height="225" fill="rgb(153, 0, 0)" stroke="#ffffff" stroke-width="1" class="highcharts-point"></rect><rect x="242.5" y="62.5" width="9" height="218" fill="rgb(153, 0, 0)" stroke="#ffffff" stroke-width="1" class="highcharts-point"></rect><rect x="279.5" y="62.5" width="9" height="218" fill="rgb(153, 0, 0)" stroke="#ffffff" stroke-width="1" class="highcharts-point"></rect><rect x="316.5" y="54.5" width="9" height="226" fill="rgb(153, 0, 0)" stroke="#ffffff" stroke-width="1" class="highcharts-point"></rect><rect x="353.5" y="64.5" width="9" height="216" fill="rgb(153, 0, 0)" stroke="#ffffff" stroke-width="1" class="highcharts-point"></rect><rect x="390.5" y="62.5" width="9" height="218" fill="rgb(153, 0, 0)" stroke="#ffffff" stroke-width="1" class="highcharts-point"></rect><rect x="427.5" y="80.5" width="9" height="200" fill="rgb(153, 0, 0)" stroke="#ffffff" stroke-width="1" class="highcharts-point"></rect><rect x="464.5" y="74.5" width="9" height="206" fill="rgb(153, 0, 0)" stroke="#ffffff" stroke-width="1" class="highcharts-point"></rect><rect x="502.5" y="65.5" width="9" height="215" fill="rgb(153, 0, 0)" stroke="#ffffff" stroke-width="1" class="highcharts-point"></rect></g><g class="highcharts-markers highcharts-series-1 highcharts-column-series " transform="translate(50,80) scale(1 1)" clip-path="none"></g></g><g class="highcharts-button highcharts-contextbutton" style="cursor:pointer;" stroke-linecap="round" transform="translate(575,405)"><title>Download chart image</title><rect fill="#ffffff" class=" highcharts-button-box" x="0.5" y="0.5" width="24" height="24" rx="2" ry="2" stroke="none" stroke-width="1"></rect><path fill="#666666" d="M 12 2 L 14 2 L 14 9 L 18 9 L 13 14 L 8 9 L 12 9 z M 3 16.9 L 3 21 L 22 21 L 22 17 L 22 17 L 22 21 L 3 21 L 3 16.9 z" class="highcharts-button-symbol" stroke="#666666" stroke-width="2"></path><text x="0" style="font-weight:normal;color:#333333;fill:#333333;" y="12"></text></g><text x="10" text-anchor="start" class="highcharts-title" style="color:#000000;font-size:14px;font-family:arial;font-weight:bold;fill:#000000;" y="21"><tspan>Figure 3. Percentage of truck drivers who retain their occupation in period 2,</tspan><tspan dy="17" x="10">2004–17</tspan><title>Figure 3. Percentage of truck drivers who retain their occupation in period 2, 2004–17</title></text><text x="10" text-anchor="start" class="highcharts-subtitle" style="color:#000000;font-family:arial;font-weight:normal;font-size:12px;fill:#000000;" y="57"></text><g class="highcharts-legend" transform="translate(165,40)"><rect fill="none" class="highcharts-legend-box" rx="0" ry="0" x="0" y="0" width="558" height="25" visibility="visible"></rect><g><g><g class="highcharts-legend-item highcharts-column-series highcharts-color-undefined highcharts-series-0" transform="translate(8,3)"><text x="21" style="color:#000;font-size:12px;font-weight:bold;cursor:pointer;font-family:Calibri, Arial, Helvetica, sans-serif;fill:#000;" text-anchor="start" y="15"><tspan>For-hire drivers</tspan></text><rect x="2" y="4" width="12" height="12" fill="rgb(0, 0, 153)" class="highcharts-point"></rect></g><g class="highcharts-legend-item highcharts-column-series highcharts-color-undefined highcharts-series-1" transform="translate(147.703125,3)"><text x="21" y="15" style="color:#000;font-size:12px;font-weight:bold;cursor:pointer;font-family:Calibri, Arial, Helvetica, sans-serif;fill:#000;" text-anchor="start"><tspan>Private-carriage drivers</tspan></text><rect x="2" y="4" width="12" height="12" fill="rgb(153, 0, 0)" class="highcharts-point"></rect></g></g></g></g><g class="highcharts-axis-labels highcharts-xaxis-labels "><text x="68.571428571429" style="color:#000000;cursor:default;font-size:12px;font-family:Calibri, Arial, Helvetica, sans-serif;font-weight:normal;background-color:#fff;fill:#000000;" text-anchor="middle" transform="translate(0,0)" y="380" opacity="1">2004</text><text x="105.71428571429" style="color:#000000;cursor:default;font-size:12px;font-family:Calibri, Arial, Helvetica, sans-serif;font-weight:normal;background-color:#fff;fill:#000000;" text-anchor="middle" transform="translate(0,0)" y="380" opacity="1">2005</text><text x="142.85714285714" style="color:#000000;cursor:default;font-size:12px;font-family:Calibri, Arial, Helvetica, sans-serif;font-weight:normal;background-color:#fff;fill:#000000;" text-anchor="middle" transform="translate(0,0)" y="380" opacity="1">2006</text><text x="180" style="color:#000000;cursor:default;font-size:12px;font-family:Calibri, Arial, Helvetica, sans-serif;font-weight:normal;background-color:#fff;fill:#000000;" text-anchor="middle" transform="translate(0,0)" y="380" opacity="1">2007</text><text x="217.14285714286" style="color:#000000;cursor:default;font-size:12px;font-family:Calibri, Arial, Helvetica, sans-serif;font-weight:normal;background-color:#fff;fill:#000000;" text-anchor="middle" transform="translate(0,0)" y="380" opacity="1">2008</text><text x="254.28571428571" style="color:#000000;cursor:default;font-size:12px;font-family:Calibri, Arial, Helvetica, sans-serif;font-weight:normal;background-color:#fff;fill:#000000;" text-anchor="middle" transform="translate(0,0)" y="380" opacity="1">2009</text><text x="291.42857142857" style="color:#000000;cursor:default;font-size:12px;font-family:Calibri, Arial, Helvetica, sans-serif;font-weight:normal;background-color:#fff;fill:#000000;" text-anchor="middle" transform="translate(0,0)" y="380" opacity="1">2010</text><text x="328.57142857143" style="color:#000000;cursor:default;font-size:12px;font-family:Calibri, Arial, Helvetica, sans-serif;font-weight:normal;background-color:#fff;fill:#000000;" text-anchor="middle" transform="translate(0,0)" y="380" opacity="1">2011</text><text x="365.71428571429" style="color:#000000;cursor:default;font-size:12px;font-family:Calibri, Arial, Helvetica, sans-serif;font-weight:normal;background-color:#fff;fill:#000000;" text-anchor="middle" transform="translate(0,0)" y="380" opacity="1">2012</text><text x="402.85714285714" style="color:#000000;cursor:default;font-size:12px;font-family:Calibri, Arial, Helvetica, sans-serif;font-weight:normal;background-color:#fff;fill:#000000;" text-anchor="middle" transform="translate(0,0)" y="380" opacity="1">2013</text><text x="440" style="color:#000000;cursor:default;font-size:12px;font-family:Calibri, Arial, Helvetica, sans-serif;font-weight:normal;background-color:#fff;fill:#000000;" text-anchor="middle" transform="translate(0,0)" y="380" opacity="1">2014</text><text x="477.14285714286" style="color:#000000;cursor:default;font-size:12px;font-family:Calibri, Arial, Helvetica, sans-serif;font-weight:normal;background-color:#fff;fill:#000000;" text-anchor="middle" transform="translate(0,0)" y="380" opacity="1">2015</text><text x="514.28571428571" style="color:#000000;cursor:default;font-size:12px;font-family:Calibri, Arial, Helvetica, sans-serif;font-weight:normal;background-color:#fff;fill:#000000;" text-anchor="middle" transform="translate(0,0)" y="380" opacity="1">2016</text><text x="551.42857142857" style="color:#000000;cursor:default;font-size:12px;font-family:Calibri, Arial, Helvetica, sans-serif;font-weight:normal;background-color:#fff;fill:#000000;" text-anchor="middle" transform="translate(0,0)" y="380" opacity="1">2017</text></g><g class="highcharts-axis-labels highcharts-yaxis-labels "><text x="35" style="color:#000000;cursor:default;font-size:12px;font-family:Calibri, Arial, Helvetica, sans-serif;font-weight:normal;background-color:#fff;fill:#000000;" text-anchor="end" transform="translate(0,0)" y="365" opacity="1">0</text><text x="35" style="color:#000000;cursor:default;font-size:12px;font-family:Calibri, Arial, Helvetica, sans-serif;font-weight:normal;background-color:#fff;fill:#000000;" text-anchor="end" transform="translate(0,0)" y="334" opacity="1">10</text><text x="35" style="color:#000000;cursor:default;font-size:12px;font-family:Calibri, Arial, Helvetica, sans-serif;font-weight:normal;background-color:#fff;fill:#000000;" text-anchor="end" transform="translate(0,0)" y="303" opacity="1">20</text><text x="35" style="color:#000000;cursor:default;font-size:12px;font-family:Calibri, Arial, Helvetica, sans-serif;font-weight:normal;background-color:#fff;fill:#000000;" text-anchor="end" transform="translate(0,0)" y="272" opacity="1">30</text><text x="35" style="color:#000000;cursor:default;font-size:12px;font-family:Calibri, Arial, Helvetica, sans-serif;font-weight:normal;background-color:#fff;fill:#000000;" text-anchor="end" transform="translate(0,0)" y="241" opacity="1">40</text><text x="35" style="color:#000000;cursor:default;font-size:12px;font-family:Calibri, Arial, Helvetica, sans-serif;font-weight:normal;background-color:#fff;fill:#000000;" text-anchor="end" transform="translate(0,0)" y="210" opacity="1">50</text><text x="35" style="color:#000000;cursor:default;font-size:12px;font-family:Calibri, Arial, Helvetica, sans-serif;font-weight:normal;background-color:#fff;fill:#000000;" text-anchor="end" transform="translate(0,0)" y="179" opacity="1">60</text><text x="35" style="color:#000000;cursor:default;font-size:12px;font-family:Calibri, Arial, Helvetica, sans-serif;font-weight:normal;background-color:#fff;fill:#000000;" text-anchor="end" transform="translate(0,0)" y="147" opacity="1">70</text><text x="35" style="color:#000000;cursor:default;font-size:12px;font-family:Calibri, Arial, Helvetica, sans-serif;font-weight:normal;background-color:#fff;fill:#000000;" text-anchor="end" transform="translate(0,0)" y="116" opacity="1">80</text><text x="35" style="color:#000000;cursor:default;font-size:12px;font-family:Calibri, Arial, Helvetica, sans-serif;font-weight:normal;background-color:#fff;fill:#000000;" text-anchor="end" transform="translate(0,0)" y="85" opacity="1">90</text></g><text x="10" class="highcharts-credits" text-anchor="start" style="cursor:default;color:#2C2C2C;font-size:9px;fill:#2C2C2C;" y="408"><tspan>Click legend items to change data display. Hover over chart to view data.</tspan><tspan x="10" dy="12">Source: Authors' calculations based on data from the Current Population Survey Outgoing Rotation Groups, 2003–17.</tspan></text></svg>