<svg xmlns:xlink="http://www.w3.org/1999/xlink" version="1.1" class="highcharts-root" style="font-family:&quot;Lucida Grande&quot;, &quot;Lucida Sans Unicode&quot;, Arial, Helvetica, sans-serif;font-size:12px;" xmlns="http://www.w3.org/2000/svg" width="610" height="430" viewBox="0 0 610 430"><desc>Created with Highcharts 6.1.0</desc><defs><clipPath id="highcharts-17a5o28-61"><rect x="0" y="0" width="260" height="370" fill="none"></rect></clipPath></defs><rect fill="#ffffff" class="highcharts-background" x="0" y="0" width="610" height="430" rx="0" ry="0"></rect><rect fill="none" class="highcharts-plot-background" x="200" y="80" width="370" height="260"></rect><g class="highcharts-pane-group"></g><g class="highcharts-plot-lines-0"><path fill="none" stroke-dasharray="none" d="M 200 93.5 L 570 93.5"></path></g><g class="highcharts-plot-lines-0"><path fill="none" stroke="#c0c0c0" stroke-width="1" stroke-dasharray="none" d="M 199.5 80 L 199.5 340"></path></g><g class="highcharts-grid highcharts-xaxis-grid "><path fill="none" stroke-dasharray="0,0" class="highcharts-grid-line" d="M 200 93.5 L 570 93.5" opacity="1"></path><path fill="none" stroke-dasharray="0,0" class="highcharts-grid-line" d="M 200 119.5 L 570 119.5" opacity="1"></path><path fill="none" stroke-dasharray="0,0" class="highcharts-grid-line" d="M 200 145.5 L 570 145.5" opacity="1"></path><path fill="none" stroke-dasharray="0,0" class="highcharts-grid-line" d="M 200 171.5 L 570 171.5" opacity="1"></path><path fill="none" stroke-dasharray="0,0" class="highcharts-grid-line" d="M 200 197.5 L 570 197.5" opacity="1"></path><path fill="none" stroke-dasharray="0,0" class="highcharts-grid-line" d="M 200 223.5 L 570 223.5" opacity="1"></path><path fill="none" stroke-dasharray="0,0" class="highcharts-grid-line" d="M 200 249.5 L 570 249.5" opacity="1"></path><path fill="none" stroke-dasharray="0,0" class="highcharts-grid-line" d="M 200 275.5 L 570 275.5" opacity="1"></path><path fill="none" stroke-dasharray="0,0" class="highcharts-grid-line" d="M 200 301.5 L 570 301.5" opacity="1"></path><path fill="none" stroke-dasharray="0,0" class="highcharts-grid-line" d="M 200 327.5 L 570 327.5" opacity="1"></path></g><g class="highcharts-grid highcharts-yaxis-grid "><path fill="none" stroke="#c0c0c0" stroke-width="1" stroke-dasharray="1,3" class="highcharts-grid-line" d="M 199.5 80 L 199.5 340" opacity="1"></path><path fill="none" stroke="#c0c0c0" stroke-width="1" stroke-dasharray="1,3" class="highcharts-grid-line" d="M 292.5 80 L 292.5 340" opacity="1"></path><path fill="none" stroke="#c0c0c0" stroke-width="1" stroke-dasharray="1,3" class="highcharts-grid-line" d="M 384.5 80 L 384.5 340" opacity="1"></path><path fill="none" stroke="#c0c0c0" stroke-width="1" stroke-dasharray="1,3" class="highcharts-grid-line" d="M 477.5 80 L 477.5 340" opacity="1"></path><path fill="none" stroke="#c0c0c0" stroke-width="1" stroke-dasharray="1,3" class="highcharts-grid-line" d="M 570.5 80 L 570.5 340" opacity="1"></path></g><rect fill="none" class="highcharts-plot-border" x="200" y="80" width="370" height="260"></rect><g class="highcharts-axis highcharts-xaxis "><path fill="none" class="highcharts-tick" stroke="#C0D0E0" stroke-width="1" d="M 200 93.5 L 190 93.5" opacity="1"></path><path fill="none" class="highcharts-tick" stroke="#C0D0E0" stroke-width="1" d="M 200 119.5 L 190 119.5" opacity="1"></path><path fill="none" class="highcharts-tick" stroke="#C0D0E0" stroke-width="1" d="M 200 145.5 L 190 145.5" opacity="1"></path><path fill="none" class="highcharts-tick" stroke="#C0D0E0" stroke-width="1" d="M 200 171.5 L 190 171.5" opacity="1"></path><path fill="none" class="highcharts-tick" stroke="#C0D0E0" stroke-width="1" d="M 200 197.5 L 190 197.5" opacity="1"></path><path fill="none" class="highcharts-tick" stroke="#C0D0E0" stroke-width="1" d="M 200 223.5 L 190 223.5" opacity="1"></path><path fill="none" class="highcharts-tick" stroke="#C0D0E0" stroke-width="1" d="M 200 249.5 L 190 249.5" opacity="1"></path><path fill="none" class="highcharts-tick" stroke="#C0D0E0" stroke-width="1" d="M 200 275.5 L 190 275.5" opacity="1"></path><path fill="none" class="highcharts-tick" stroke="#C0D0E0" stroke-width="1" d="M 200 301.5 L 190 301.5" opacity="1"></path><path fill="none" class="highcharts-tick" stroke="#C0D0E0" stroke-width="1" d="M 200 327.5 L 190 327.5" opacity="1"></path><path fill="none" class="highcharts-axis-line" stroke="gray" stroke-width="1.2" d="M 199.4 80 L 199.4 340"></path></g><g class="highcharts-axis highcharts-yaxis "><path fill="none" class="highcharts-tick" stroke="#C0D0E0" stroke-width="1" d="M 199.5 340 L 199.5 350" opacity="1"></path><path fill="none" class="highcharts-tick" stroke="#C0D0E0" stroke-width="1" d="M 292.5 340 L 292.5 350" opacity="1"></path><path fill="none" class="highcharts-tick" stroke="#C0D0E0" stroke-width="1" d="M 384.5 340 L 384.5 350" opacity="1"></path><path fill="none" class="highcharts-tick" stroke="#C0D0E0" stroke-width="1" d="M 477.5 340 L 477.5 350" opacity="1"></path><path fill="none" class="highcharts-tick" stroke="#C0D0E0" stroke-width="1" d="M 570.5 340 L 570.5 350" opacity="1"></path><text x="385" text-anchor="middle" transform="translate(0,0)" class="highcharts-axis-title" style="color:#000000;font-family:Calibri, Arial, Helvetica, sans-serif;font-weight:normal;font-size:13px;fill:#000000;" y="381"><tspan>Percent</tspan></text><path fill="none" class="highcharts-axis-line" stroke="gray" stroke-width="1" d="M 200 340.5 L 570 340.5"></path></g><g class="highcharts-series-group"><g class="highcharts-series highcharts-series-0 highcharts-bar-series " transform="translate(570,340) rotate(90) scale(-1,1) scale(1 1)" clip-path="url(#highcharts-17a5o28-61)"><rect x="247.5" y="72.5" width="7" height="298" fill="rgb(0, 0, 153)" stroke="#ffffff" stroke-width="1" class="highcharts-point"></rect><rect x="221.5" y="311.5" width="7" height="59" fill="rgb(0, 0, 153)" stroke="#ffffff" stroke-width="1" class="highcharts-point"></rect><rect x="195.5" y="168.5" width="7" height="202" fill="rgb(0, 0, 153)" stroke="#ffffff" stroke-width="1" class="highcharts-point"></rect><rect x="169.5" y="250.5" width="7" height="120" fill="rgb(0, 0, 153)" stroke="#ffffff" stroke-width="1" class="highcharts-point"></rect><rect x="143.5" y="120.5" width="7" height="250" fill="rgb(0, 0, 153)" stroke="#ffffff" stroke-width="1" class="highcharts-point"></rect><rect x="117.5" y="307.5" width="7" height="63" fill="rgb(0, 0, 153)" stroke="#ffffff" stroke-width="1" class="highcharts-point"></rect><rect x="91.5" y="168.5" width="7" height="202" fill="rgb(0, 0, 153)" stroke="#ffffff" stroke-width="1" class="highcharts-point"></rect><rect x="65.5" y="220.5" width="7" height="150" fill="rgb(0, 0, 153)" stroke="#ffffff" stroke-width="1" class="highcharts-point"></rect><rect x="39.5" y="205.5" width="7" height="165" fill="rgb(0, 0, 153)" stroke="#ffffff" stroke-width="1" class="highcharts-point"></rect><rect x="13.5" y="26.5" width="7" height="344" fill="rgb(0, 0, 153)" stroke="#ffffff" stroke-width="1" class="highcharts-point"></rect></g><g class="highcharts-markers highcharts-series-0 highcharts-bar-series " transform="translate(570,340) rotate(90) scale(-1,1) scale(1 1)" clip-path="none"></g><g class="highcharts-series highcharts-series-1 highcharts-bar-series " transform="translate(570,340) rotate(90) scale(-1,1) scale(1 1)" clip-path="url(#highcharts-17a5o28-61)"><rect x="239.5" y="250.5" width="7" height="120" fill="rgb(153, 0, 0)" stroke="#ffffff" stroke-width="1" class="highcharts-point"></rect><rect x="213.5" y="315.5" width="7" height="55" fill="rgb(153, 0, 0)" stroke="#ffffff" stroke-width="1" class="highcharts-point"></rect><rect x="187.5" y="187.5" width="7" height="183" fill="rgb(153, 0, 0)" stroke="#ffffff" stroke-width="1" class="highcharts-point"></rect><rect x="161.5" y="148.5" width="7" height="222" fill="rgb(153, 0, 0)" stroke="#ffffff" stroke-width="1" class="highcharts-point"></rect><rect x="135.5" y="78.5" width="7" height="292" fill="rgb(153, 0, 0)" stroke="#ffffff" stroke-width="1" class="highcharts-point"></rect><rect x="109.5" y="320.5" width="7" height="50" fill="rgb(153, 0, 0)" stroke="#ffffff" stroke-width="1" class="highcharts-point"></rect><rect x="83.5" y="59.5" width="7" height="311" fill="rgb(153, 0, 0)" stroke="#ffffff" stroke-width="1" class="highcharts-point"></rect><rect x="57.5" y="244.5" width="7" height="126" fill="rgb(153, 0, 0)" stroke="#ffffff" stroke-width="1" class="highcharts-point"></rect><rect x="31.5" y="216.5" width="7" height="154" fill="rgb(153, 0, 0)" stroke="#ffffff" stroke-width="1" class="highcharts-point"></rect><rect x="5.5" y="37.5" width="7" height="333" fill="rgb(153, 0, 0)" stroke="#ffffff" stroke-width="1" class="highcharts-point"></rect></g><g class="highcharts-markers highcharts-series-1 highcharts-bar-series " transform="translate(570,340) rotate(90) scale(-1,1) scale(1 1)" clip-path="none"></g></g><g class="highcharts-button highcharts-contextbutton" style="cursor:pointer;" stroke-linecap="round" transform="translate(575,405)"><title>Download chart image</title><rect fill="#ffffff" class=" highcharts-button-box" x="0.5" y="0.5" width="24" height="24" rx="2" ry="2" stroke="none" stroke-width="1"></rect><path fill="#666666" d="M 12 2 L 14 2 L 14 9 L 18 9 L 13 14 L 8 9 L 12 9 z M 3 16.9 L 3 21 L 22 21 L 22 17 L 22 17 L 22 21 L 3 21 L 3 16.9 z" class="highcharts-button-symbol" stroke="#666666" stroke-width="2"></path><text x="0" style="font-weight:normal;color:#333333;fill:#333333;" y="12"></text></g><text x="10" text-anchor="start" class="highcharts-title" style="color:#000000;font-size:14px;font-family:arial;font-weight:bold;fill:#000000;" y="21"><tspan>Figure 5. Percentage of workers who leave truck driving, by occupational</tspan><tspan dy="17" x="10">destination</tspan><title>Figure 5. Percentage of workers who leave truck driving, by occupational destination</title></text><text x="10" text-anchor="start" class="highcharts-subtitle" style="color:#000000;font-family:arial;font-weight:normal;font-size:12px;fill:#000000;" y="57"></text><g class="highcharts-legend" transform="translate(160,40)"><rect fill="none" class="highcharts-legend-box" rx="0" ry="0" x="0" y="0" width="558" height="25" visibility="visible"></rect><g><g><g class="highcharts-legend-item highcharts-bar-series highcharts-color-undefined highcharts-series-0" transform="translate(8,3)"><text x="21" style="color:#000;font-size:12px;font-weight:bold;cursor:pointer;font-family:Calibri, Arial, Helvetica, sans-serif;fill:#000;" text-anchor="start" y="15"><tspan>For-hire drivers</tspan></text><rect x="2" y="4" width="12" height="12" fill="rgb(0, 0, 153)" class="highcharts-point"></rect></g><g class="highcharts-legend-item highcharts-bar-series highcharts-color-undefined highcharts-series-1" transform="translate(147.703125,3)"><text x="21" y="15" style="color:#000;font-size:12px;font-weight:bold;cursor:pointer;font-family:Calibri, Arial, Helvetica, sans-serif;fill:#000;" text-anchor="start"><tspan>Private-carriage drivers</tspan></text><rect x="2" y="4" width="12" height="12" fill="rgb(153, 0, 0)" class="highcharts-point"></rect></g></g></g></g><g class="highcharts-axis-labels highcharts-xaxis-labels "><text x="185" style="color:#000000;cursor:default;font-size:12px;font-family:Calibri, Arial, Helvetica, sans-serif;font-weight:normal;background-color:#fff;fill:#000000;" text-anchor="end" transform="translate(0,0)" y="98" opacity="1">Management</text><text x="185" style="color:#000000;cursor:default;font-size:12px;font-family:Calibri, Arial, Helvetica, sans-serif;font-weight:normal;background-color:#fff;fill:#000000;" text-anchor="end" transform="translate(0,0)" y="124" opacity="1"><tspan>Professional and related</tspan></text><text x="185" style="color:#000000;cursor:default;font-size:12px;font-family:Calibri, Arial, Helvetica, sans-serif;font-weight:normal;background-color:#fff;fill:#000000;" text-anchor="end" transform="translate(0,0)" y="150" opacity="1">Service</text><text x="185" style="color:#000000;cursor:default;font-size:12px;font-family:Calibri, Arial, Helvetica, sans-serif;font-weight:normal;background-color:#fff;fill:#000000;" text-anchor="end" transform="translate(0,0)" y="176" opacity="1"><tspan>Sales and related</tspan></text><text x="185" style="color:#000000;cursor:default;font-size:12px;font-family:Calibri, Arial, Helvetica, sans-serif;font-weight:normal;background-color:#fff;fill:#000000;" text-anchor="end" transform="translate(0,0)" y="202" opacity="1"><tspan>Office and administrative support</tspan></text><text x="185" style="color:#000000;cursor:default;font-size:12px;font-family:Calibri, Arial, Helvetica, sans-serif;font-weight:normal;background-color:#fff;fill:#000000;" text-anchor="end" transform="translate(0,0)" y="228" opacity="1"><tspan>Farming, fishing, and forestry</tspan></text><text x="185" style="color:#000000;cursor:default;font-size:12px;font-family:Calibri, Arial, Helvetica, sans-serif;font-weight:normal;background-color:#fff;fill:#000000;" text-anchor="end" transform="translate(0,0)" y="254" opacity="1"><tspan>Construction and extraction</tspan></text><text x="185" style="color:#000000;cursor:default;font-size:12px;font-family:Calibri, Arial, Helvetica, sans-serif;font-weight:normal;background-color:#fff;fill:#000000;" text-anchor="end" transform="translate(0,0)" y="273" opacity="1"><tspan>Installation, maintenance, and</tspan><tspan dy="15" x="185">repair</tspan><title>Installation, maintenance, and repair</title></text><text x="185" style="color:#000000;cursor:default;font-size:12px;font-family:Calibri, Arial, Helvetica, sans-serif;font-weight:normal;background-color:#fff;fill:#000000;" text-anchor="end" transform="translate(0,0)" y="306" opacity="1">Production</text><text x="185" style="color:#000000;cursor:default;font-size:12px;font-family:Calibri, Arial, Helvetica, sans-serif;font-weight:normal;background-color:#fff;fill:#000000;" text-anchor="end" transform="translate(0,0)" y="325" opacity="1"><tspan>Transportation and material</tspan><tspan dy="15" x="185">moving</tspan><title>Transportation and material moving</title></text></g><g class="highcharts-axis-labels highcharts-yaxis-labels "><text x="200" style="color:#000000;cursor:default;font-size:12px;font-family:Calibri, Arial, Helvetica, sans-serif;font-weight:normal;background-color:#fff;fill:#000000;" text-anchor="middle" transform="translate(0,0)" y="360" opacity="1">0</text><text x="292.5" style="color:#000000;cursor:default;font-size:12px;font-family:Calibri, Arial, Helvetica, sans-serif;font-weight:normal;background-color:#fff;fill:#000000;" text-anchor="middle" transform="translate(0,0)" y="360" opacity="1">5</text><text x="385" style="color:#000000;cursor:default;font-size:12px;font-family:Calibri, Arial, Helvetica, sans-serif;font-weight:normal;background-color:#fff;fill:#000000;" text-anchor="middle" transform="translate(0,0)" y="360" opacity="1">10</text><text x="477.5" style="color:#000000;cursor:default;font-size:12px;font-family:Calibri, Arial, Helvetica, sans-serif;font-weight:normal;background-color:#fff;fill:#000000;" text-anchor="middle" transform="translate(0,0)" y="360" opacity="1">15</text><text x="570" style="color:#000000;cursor:default;font-size:12px;font-family:Calibri, Arial, Helvetica, sans-serif;font-weight:normal;background-color:#fff;fill:#000000;" text-anchor="middle" transform="translate(0,0)" y="360" opacity="1">20</text></g><text x="10" class="highcharts-credits" text-anchor="start" style="cursor:default;color:#2C2C2C;font-size:9px;fill:#2C2C2C;" y="408"><tspan>Click legend items to change data display. Hover over chart to view data.</tspan><tspan x="10" dy="12">Source: Authors’ calculations based on data from the Current Population Survey Outgoing Rotation Groups, 2003–17.</tspan></text></svg>