<svg xmlns:xlink="http://www.w3.org/1999/xlink" version="1.1" class="highcharts-root" style="font-family:&quot;Lucida Grande&quot;, &quot;Lucida Sans Unicode&quot;, Arial, Helvetica, sans-serif;font-size:12px;" xmlns="http://www.w3.org/2000/svg" width="610" height="430" viewBox="0 0 610 430"><desc>Created with Highcharts 6.1.0</desc><defs><clipPath id="highcharts-17a5o28-42"><rect x="0" y="0" width="510" height="290" fill="none"></rect></clipPath></defs><rect fill="#ffffff" class="highcharts-background" x="0" y="0" width="610" height="430" rx="0" ry="0"></rect><rect fill="none" class="highcharts-plot-background" x="60" y="70" width="510" height="290"></rect><g class="highcharts-pane-group"></g><g class="highcharts-plot-lines-0"><path fill="none" stroke-dasharray="none" d="M 77.5 70 L 77.5 360"></path></g><g class="highcharts-plot-lines-0"><path fill="none" stroke="#c0c0c0" stroke-width="1" stroke-dasharray="none" d="M 60 360.5 L 570 360.5"></path></g><g class="highcharts-grid highcharts-xaxis-grid "><path fill="none" stroke-dasharray="0,0" class="highcharts-grid-line" d="M 77.5 70 L 77.5 360" opacity="1"></path><path fill="none" stroke-dasharray="0,0" class="highcharts-grid-line" d="M 114.5 70 L 114.5 360" opacity="1"></path><path fill="none" stroke-dasharray="0,0" class="highcharts-grid-line" d="M 150.5 70 L 150.5 360" opacity="1"></path><path fill="none" stroke-dasharray="0,0" class="highcharts-grid-line" d="M 187.5 70 L 187.5 360" opacity="1"></path><path fill="none" stroke-dasharray="0,0" class="highcharts-grid-line" d="M 223.5 70 L 223.5 360" opacity="1"></path><path fill="none" stroke-dasharray="0,0" class="highcharts-grid-line" d="M 259.5 70 L 259.5 360" opacity="1"></path><path fill="none" stroke-dasharray="0,0" class="highcharts-grid-line" d="M 296.5 70 L 296.5 360" opacity="1"></path><path fill="none" stroke-dasharray="0,0" class="highcharts-grid-line" d="M 332.5 70 L 332.5 360" opacity="1"></path><path fill="none" stroke-dasharray="0,0" class="highcharts-grid-line" d="M 369.5 70 L 369.5 360" opacity="1"></path><path fill="none" stroke-dasharray="0,0" class="highcharts-grid-line" d="M 405.5 70 L 405.5 360" opacity="1"></path><path fill="none" stroke-dasharray="0,0" class="highcharts-grid-line" d="M 442.5 70 L 442.5 360" opacity="1"></path><path fill="none" stroke-dasharray="0,0" class="highcharts-grid-line" d="M 478.5 70 L 478.5 360" opacity="1"></path><path fill="none" stroke-dasharray="0,0" class="highcharts-grid-line" d="M 514.5 70 L 514.5 360" opacity="1"></path><path fill="none" stroke-dasharray="0,0" class="highcharts-grid-line" d="M 551.5 70 L 551.5 360" opacity="1"></path></g><g class="highcharts-grid highcharts-yaxis-grid "><path fill="none" stroke="#c0c0c0" stroke-width="1" stroke-dasharray="1,3" class="highcharts-grid-line" d="M 60 360.5 L 570 360.5" opacity="1"></path><path fill="none" stroke="#c0c0c0" stroke-width="1" stroke-dasharray="1,3" class="highcharts-grid-line" d="M 60 302.5 L 570 302.5" opacity="1"></path><path fill="none" stroke="#c0c0c0" stroke-width="1" stroke-dasharray="1,3" class="highcharts-grid-line" d="M 60 244.5 L 570 244.5" opacity="1"></path><path fill="none" stroke="#c0c0c0" stroke-width="1" stroke-dasharray="1,3" class="highcharts-grid-line" d="M 60 186.5 L 570 186.5" opacity="1"></path><path fill="none" stroke="#c0c0c0" stroke-width="1" stroke-dasharray="1,3" class="highcharts-grid-line" d="M 60 128.5 L 570 128.5" opacity="1"></path><path fill="none" stroke="#c0c0c0" stroke-width="1" stroke-dasharray="1,3" class="highcharts-grid-line" d="M 60 69.5 L 570 69.5" opacity="1"></path></g><rect fill="none" class="highcharts-plot-border" x="60" y="70" width="510" height="290"></rect><g class="highcharts-axis highcharts-xaxis "><path fill="none" class="highcharts-tick" stroke="#C0D0E0" stroke-width="1" d="M 77.5 360 L 77.5 370" opacity="1"></path><path fill="none" class="highcharts-tick" stroke="#C0D0E0" stroke-width="1" d="M 114.5 360 L 114.5 370" opacity="1"></path><path fill="none" class="highcharts-tick" stroke="#C0D0E0" stroke-width="1" d="M 150.5 360 L 150.5 370" opacity="1"></path><path fill="none" class="highcharts-tick" stroke="#C0D0E0" stroke-width="1" d="M 187.5 360 L 187.5 370" opacity="1"></path><path fill="none" class="highcharts-tick" stroke="#C0D0E0" stroke-width="1" d="M 223.5 360 L 223.5 370" opacity="1"></path><path fill="none" class="highcharts-tick" stroke="#C0D0E0" stroke-width="1" d="M 259.5 360 L 259.5 370" opacity="1"></path><path fill="none" class="highcharts-tick" stroke="#C0D0E0" stroke-width="1" d="M 296.5 360 L 296.5 370" opacity="1"></path><path fill="none" class="highcharts-tick" stroke="#C0D0E0" stroke-width="1" d="M 332.5 360 L 332.5 370" opacity="1"></path><path fill="none" class="highcharts-tick" stroke="#C0D0E0" stroke-width="1" d="M 369.5 360 L 369.5 370" opacity="1"></path><path fill="none" class="highcharts-tick" stroke="#C0D0E0" stroke-width="1" d="M 405.5 360 L 405.5 370" opacity="1"></path><path fill="none" class="highcharts-tick" stroke="#C0D0E0" stroke-width="1" d="M 442.5 360 L 442.5 370" opacity="1"></path><path fill="none" class="highcharts-tick" stroke="#C0D0E0" stroke-width="1" d="M 478.5 360 L 478.5 370" opacity="1"></path><path fill="none" class="highcharts-tick" stroke="#C0D0E0" stroke-width="1" d="M 514.5 360 L 514.5 370" opacity="1"></path><path fill="none" class="highcharts-tick" stroke="#C0D0E0" stroke-width="1" d="M 551.5 360 L 551.5 370" opacity="1"></path><path fill="none" class="highcharts-axis-line" stroke="gray" stroke-width="1.2" d="M 60 360.6 L 570 360.6"></path></g><g class="highcharts-axis highcharts-yaxis "><path fill="none" class="highcharts-tick" stroke="#C0D0E0" stroke-width="1" d="M 60 360.5 L 50 360.5" opacity="1"></path><path fill="none" class="highcharts-tick" stroke="#C0D0E0" stroke-width="1" d="M 60 302.5 L 50 302.5" opacity="1"></path><path fill="none" class="highcharts-tick" stroke="#C0D0E0" stroke-width="1" d="M 60 244.5 L 50 244.5" opacity="1"></path><path fill="none" class="highcharts-tick" stroke="#C0D0E0" stroke-width="1" d="M 60 186.5 L 50 186.5" opacity="1"></path><path fill="none" class="highcharts-tick" stroke="#C0D0E0" stroke-width="1" d="M 60 128.5 L 50 128.5" opacity="1"></path><path fill="none" class="highcharts-tick" stroke="#C0D0E0" stroke-width="1" d="M 60 69.5 L 50 69.5" opacity="1"></path><text x="75" text-anchor="end" transform="translate(0,0)" class="highcharts-axis-title" style="color:#000000;font-family:Calibri, Arial, Helvetica, sans-serif;font-weight:normal;font-size:13px;fill:#000000;" y="50"><tspan>Dollars</tspan></text><path fill="none" class="highcharts-axis-line" stroke="gray" stroke-width="1" d="M 59.5 70 L 59.5 360"></path></g><g class="highcharts-series-group"><g class="highcharts-series highcharts-series-0 highcharts-column-series " transform="translate(60,70) scale(1 1)" clip-path="url(#highcharts-17a5o28-42)"><rect x="7.5" y="114.5" width="6" height="176" fill="rgb(0, 0, 153)" stroke="#ffffff" stroke-width="1" class="highcharts-point"></rect><rect x="43.5" y="113.5" width="6" height="177" fill="rgb(0, 0, 153)" stroke="#ffffff" stroke-width="1" class="highcharts-point"></rect><rect x="80.5" y="109.5" width="6" height="181" fill="rgb(0, 0, 153)" stroke="#ffffff" stroke-width="1" class="highcharts-point"></rect><rect x="116.5" y="104.5" width="6" height="186" fill="rgb(0, 0, 153)" stroke="#ffffff" stroke-width="1" class="highcharts-point"></rect><rect x="153.5" y="97.5" width="6" height="193" fill="rgb(0, 0, 153)" stroke="#ffffff" stroke-width="1" class="highcharts-point"></rect><rect x="189.5" y="90.5" width="6" height="200" fill="rgb(0, 0, 153)" stroke="#ffffff" stroke-width="1" class="highcharts-point"></rect><rect x="226.5" y="86.5" width="6" height="204" fill="rgb(0, 0, 153)" stroke="#ffffff" stroke-width="1" class="highcharts-point"></rect><rect x="262.5" y="84.5" width="6" height="206" fill="rgb(0, 0, 153)" stroke="#ffffff" stroke-width="1" class="highcharts-point"></rect><rect x="298.5" y="81.5" width="6" height="209" fill="rgb(0, 0, 153)" stroke="#ffffff" stroke-width="1" class="highcharts-point"></rect><rect x="335.5" y="77.5" width="6" height="213" fill="rgb(0, 0, 153)" stroke="#ffffff" stroke-width="1" class="highcharts-point"></rect><rect x="371.5" y="76.5" width="6" height="214" fill="rgb(0, 0, 153)" stroke="#ffffff" stroke-width="1" class="highcharts-point"></rect><rect x="408.5" y="72.5" width="6" height="218" fill="rgb(0, 0, 153)" stroke="#ffffff" stroke-width="1" class="highcharts-point"></rect><rect x="444.5" y="69.5" width="6" height="221" fill="rgb(0, 0, 153)" stroke="#ffffff" stroke-width="1" class="highcharts-point"></rect><rect x="481.5" y="64.5" width="6" height="226" fill="rgb(0, 0, 153)" stroke="#ffffff" stroke-width="1" class="highcharts-point"></rect></g><g class="highcharts-markers highcharts-series-0 highcharts-column-series " transform="translate(60,70) scale(1 1)" clip-path="none"></g><g class="highcharts-series highcharts-series-1 highcharts-column-series " transform="translate(60,70) scale(1 1)" clip-path="url(#highcharts-17a5o28-42)"><rect x="14.5" y="91.5" width="6" height="199" fill="rgb(0,102,204)" stroke="#ffffff" stroke-width="1" class="highcharts-point"></rect><rect x="51.5" y="89.5" width="6" height="201" fill="rgb(0,102,204)" stroke="#ffffff" stroke-width="1" class="highcharts-point"></rect><rect x="87.5" y="84.5" width="6" height="206" fill="rgb(0,102,204)" stroke="#ffffff" stroke-width="1" class="highcharts-point"></rect><rect x="124.5" y="79.5" width="6" height="211" fill="rgb(0,102,204)" stroke="#ffffff" stroke-width="1" class="highcharts-point"></rect><rect x="160.5" y="72.5" width="6" height="218" fill="rgb(0,102,204)" stroke="#ffffff" stroke-width="1" class="highcharts-point"></rect><rect x="196.5" y="65.5" width="6" height="225" fill="rgb(0,102,204)" stroke="#ffffff" stroke-width="1" class="highcharts-point"></rect><rect x="233.5" y="62.5" width="6" height="228" fill="rgb(0,102,204)" stroke="#ffffff" stroke-width="1" class="highcharts-point"></rect><rect x="269.5" y="61.5" width="6" height="229" fill="rgb(0,102,204)" stroke="#ffffff" stroke-width="1" class="highcharts-point"></rect><rect x="306.5" y="59.5" width="6" height="231" fill="rgb(0,102,204)" stroke="#ffffff" stroke-width="1" class="highcharts-point"></rect><rect x="342.5" y="56.5" width="6" height="234" fill="rgb(0,102,204)" stroke="#ffffff" stroke-width="1" class="highcharts-point"></rect><rect x="379.5" y="53.5" width="6" height="237" fill="rgb(0,102,204)" stroke="#ffffff" stroke-width="1" class="highcharts-point"></rect><rect x="415.5" y="47.5" width="6" height="243" fill="rgb(0,102,204)" stroke="#ffffff" stroke-width="1" class="highcharts-point"></rect><rect x="451.5" y="44.5" width="6" height="246" fill="rgb(0,102,204)" stroke="#ffffff" stroke-width="1" class="highcharts-point"></rect><rect x="488.5" y="37.5" width="6" height="253" fill="rgb(0,102,204)" stroke="#ffffff" stroke-width="1" class="highcharts-point"></rect></g><g class="highcharts-markers highcharts-series-1 highcharts-column-series " transform="translate(60,70) scale(1 1)" clip-path="none"></g><g class="highcharts-series highcharts-series-2 highcharts-column-series " transform="translate(60,70) scale(1 1)" clip-path="url(#highcharts-17a5o28-42)"><rect x="22.5" y="109.5" width="6" height="181" fill="rgb(153,0,0)" stroke="#ffffff" stroke-width="1" class="highcharts-point"></rect><rect x="58.5" y="105.5" width="6" height="185" fill="rgb(153,0,0)" stroke="#ffffff" stroke-width="1" class="highcharts-point"></rect><rect x="94.5" y="90.5" width="6" height="200" fill="rgb(153,0,0)" stroke="#ffffff" stroke-width="1" class="highcharts-point"></rect><rect x="131.5" y="88.5" width="6" height="202" fill="rgb(153,0,0)" stroke="#ffffff" stroke-width="1" class="highcharts-point"></rect><rect x="167.5" y="84.5" width="6" height="206" fill="rgb(153,0,0)" stroke="#ffffff" stroke-width="1" class="highcharts-point"></rect><rect x="204.5" y="80.5" width="6" height="210" fill="rgb(153,0,0)" stroke="#ffffff" stroke-width="1" class="highcharts-point"></rect><rect x="240.5" y="77.5" width="6" height="213" fill="rgb(153,0,0)" stroke="#ffffff" stroke-width="1" class="highcharts-point"></rect><rect x="277.5" y="76.5" width="6" height="214" fill="rgb(153,0,0)" stroke="#ffffff" stroke-width="1" class="highcharts-point"></rect><rect x="313.5" y="76.5" width="6" height="214" fill="rgb(153,0,0)" stroke="#ffffff" stroke-width="1" class="highcharts-point"></rect><rect x="349.5" y="76.5" width="6" height="214" fill="rgb(153,0,0)" stroke="#ffffff" stroke-width="1" class="highcharts-point"></rect><rect x="386.5" y="76.5" width="6" height="214" fill="rgb(153,0,0)" stroke="#ffffff" stroke-width="1" class="highcharts-point"></rect><rect x="422.5" y="63.5" width="6" height="227" fill="rgb(153,0,0)" stroke="#ffffff" stroke-width="1" class="highcharts-point"></rect><rect x="459.5" y="58.5" width="6" height="232" fill="rgb(153,0,0)" stroke="#ffffff" stroke-width="1" class="highcharts-point"></rect><rect x="495.5" y="52.5" width="6" height="238" fill="rgb(153,0,0)" stroke="#ffffff" stroke-width="1" class="highcharts-point"></rect></g><g class="highcharts-markers highcharts-series-2 highcharts-column-series " transform="translate(60,70) scale(1 1)" clip-path="none"></g></g><g class="highcharts-button highcharts-contextbutton" style="cursor:pointer;" stroke-linecap="round" transform="translate(575,405)"><title>Download chart image</title><rect fill="#ffffff" class=" highcharts-button-box" x="0.5" y="0.5" width="24" height="24" rx="2" ry="2" stroke="none" stroke-width="1"></rect><path fill="#666666" d="M 12 2 L 14 2 L 14 9 L 18 9 L 13 14 L 8 9 L 12 9 z M 3 16.9 L 3 21 L 22 21 L 22 17 L 22 17 L 22 21 L 3 21 L 3 16.9 z" class="highcharts-button-symbol" stroke="#666666" stroke-width="2"></path><text x="0" style="font-weight:normal;color:#333333;fill:#333333;" y="12"></text></g><text x="10" text-anchor="start" class="highcharts-title" style="color:#000000;font-size:14px;font-family:arial;font-weight:bold;fill:#000000;" y="21"><tspan>Figure 2. Nominal earnings of truck drivers and blue-collar workers, 2003–16</tspan></text><text x="10" text-anchor="start" class="highcharts-subtitle" style="color:#000000;font-family:arial;font-weight:normal;font-size:12px;fill:#000000;" y="40"></text><g class="highcharts-legend" transform="translate(130,25)"><rect fill="none" class="highcharts-legend-box" rx="0" ry="0" x="0" y="0" width="408" height="39" visibility="visible"></rect><g><g><g class="highcharts-legend-item highcharts-column-series highcharts-color-undefined highcharts-series-0" transform="translate(8,3)"><text x="21" style="color:#000;font-size:12px;font-weight:bold;cursor:pointer;font-family:Calibri, Arial, Helvetica, sans-serif;fill:#000;" text-anchor="start" y="15"><tspan>All truck drivers</tspan></text><rect x="2" y="4" width="12" height="12" fill="rgb(0, 0, 153)" class="highcharts-point"></rect></g><g class="highcharts-legend-item highcharts-column-series highcharts-color-undefined highcharts-series-1" transform="translate(150.375,3)"><text x="21" y="15" style="color:#000;font-size:12px;font-weight:bold;cursor:pointer;font-family:Calibri, Arial, Helvetica, sans-serif;fill:#000;" text-anchor="start"><tspan>Heavy truck drivers</tspan></text><rect x="2" y="4" width="12" height="12" fill="rgb(0,102,204)" class="highcharts-point"></rect></g><g class="highcharts-legend-item highcharts-column-series highcharts-color-undefined highcharts-series-2" transform="translate(8,17)"><text x="21" y="15" style="color:#000;font-size:12px;font-weight:bold;cursor:pointer;font-family:Calibri, Arial, Helvetica, sans-serif;fill:#000;" text-anchor="start"><tspan>Blue-collar workers (excluding truck drivers)</tspan></text><rect x="2" y="4" width="12" height="12" fill="rgb(153,0,0)" class="highcharts-point"></rect></g></g></g></g><g class="highcharts-axis-labels highcharts-xaxis-labels "><text x="78.214285714286" style="color:#000000;cursor:default;font-size:12px;font-family:Calibri, Arial, Helvetica, sans-serif;font-weight:normal;background-color:#fff;fill:#000000;" text-anchor="middle" transform="translate(0,0)" y="380" opacity="1">2003</text><text x="114.64285714286" style="color:#000000;cursor:default;font-size:12px;font-family:Calibri, Arial, Helvetica, sans-serif;font-weight:normal;background-color:#fff;fill:#000000;" text-anchor="middle" transform="translate(0,0)" y="380" opacity="1">2004</text><text x="151.07142857143" style="color:#000000;cursor:default;font-size:12px;font-family:Calibri, Arial, Helvetica, sans-serif;font-weight:normal;background-color:#fff;fill:#000000;" text-anchor="middle" transform="translate(0,0)" y="380" opacity="1">2005</text><text x="187.5" style="color:#000000;cursor:default;font-size:12px;font-family:Calibri, Arial, Helvetica, sans-serif;font-weight:normal;background-color:#fff;fill:#000000;" text-anchor="middle" transform="translate(0,0)" y="380" opacity="1">2006</text><text x="223.92857142857" style="color:#000000;cursor:default;font-size:12px;font-family:Calibri, Arial, Helvetica, sans-serif;font-weight:normal;background-color:#fff;fill:#000000;" text-anchor="middle" transform="translate(0,0)" y="380" opacity="1">2007</text><text x="260.35714285714" style="color:#000000;cursor:default;font-size:12px;font-family:Calibri, Arial, Helvetica, sans-serif;font-weight:normal;background-color:#fff;fill:#000000;" text-anchor="middle" transform="translate(0,0)" y="380" opacity="1">2008</text><text x="296.78571428571" style="color:#000000;cursor:default;font-size:12px;font-family:Calibri, Arial, Helvetica, sans-serif;font-weight:normal;background-color:#fff;fill:#000000;" text-anchor="middle" transform="translate(0,0)" y="380" opacity="1">2009</text><text x="333.21428571429" style="color:#000000;cursor:default;font-size:12px;font-family:Calibri, Arial, Helvetica, sans-serif;font-weight:normal;background-color:#fff;fill:#000000;" text-anchor="middle" transform="translate(0,0)" y="380" opacity="1">2010</text><text x="369.64285714286" style="color:#000000;cursor:default;font-size:12px;font-family:Calibri, Arial, Helvetica, sans-serif;font-weight:normal;background-color:#fff;fill:#000000;" text-anchor="middle" transform="translate(0,0)" y="380" opacity="1">2011</text><text x="406.07142857143" style="color:#000000;cursor:default;font-size:12px;font-family:Calibri, Arial, Helvetica, sans-serif;font-weight:normal;background-color:#fff;fill:#000000;" text-anchor="middle" transform="translate(0,0)" y="380" opacity="1">2012</text><text x="442.5" style="color:#000000;cursor:default;font-size:12px;font-family:Calibri, Arial, Helvetica, sans-serif;font-weight:normal;background-color:#fff;fill:#000000;" text-anchor="middle" transform="translate(0,0)" y="380" opacity="1">2013</text><text x="478.92857142857" style="color:#000000;cursor:default;font-size:12px;font-family:Calibri, Arial, Helvetica, sans-serif;font-weight:normal;background-color:#fff;fill:#000000;" text-anchor="middle" transform="translate(0,0)" y="380" opacity="1">2014</text><text x="515.35714285714" style="color:#000000;cursor:default;font-size:12px;font-family:Calibri, Arial, Helvetica, sans-serif;font-weight:normal;background-color:#fff;fill:#000000;" text-anchor="middle" transform="translate(0,0)" y="380" opacity="1">2015</text><text x="551.78571428571" style="color:#000000;cursor:default;font-size:12px;font-family:Calibri, Arial, Helvetica, sans-serif;font-weight:normal;background-color:#fff;fill:#000000;" text-anchor="middle" transform="translate(0,0)" y="380" opacity="1">2016</text></g><g class="highcharts-axis-labels highcharts-yaxis-labels "><text x="45" style="color:#000000;cursor:default;font-size:12px;font-family:Calibri, Arial, Helvetica, sans-serif;font-weight:normal;background-color:#fff;fill:#000000;" text-anchor="end" transform="translate(0,0)" y="365" opacity="1">0</text><text x="45" style="color:#000000;cursor:default;font-size:12px;font-family:Calibri, Arial, Helvetica, sans-serif;font-weight:normal;background-color:#fff;fill:#000000;" text-anchor="end" transform="translate(0,0)" y="307" opacity="1">10,000</text><text x="45" style="color:#000000;cursor:default;font-size:12px;font-family:Calibri, Arial, Helvetica, sans-serif;font-weight:normal;background-color:#fff;fill:#000000;" text-anchor="end" transform="translate(0,0)" y="249" opacity="1">20,000</text><text x="45" style="color:#000000;cursor:default;font-size:12px;font-family:Calibri, Arial, Helvetica, sans-serif;font-weight:normal;background-color:#fff;fill:#000000;" text-anchor="end" transform="translate(0,0)" y="191" opacity="1">30,000</text><text x="45" style="color:#000000;cursor:default;font-size:12px;font-family:Calibri, Arial, Helvetica, sans-serif;font-weight:normal;background-color:#fff;fill:#000000;" text-anchor="end" transform="translate(0,0)" y="133" opacity="1">40,000</text><text x="45" style="color:#000000;cursor:default;font-size:12px;font-family:Calibri, Arial, Helvetica, sans-serif;font-weight:normal;background-color:#fff;fill:#000000;" text-anchor="end" transform="translate(0,0)" y="75" opacity="1">50,000</text></g><text x="10" class="highcharts-credits" text-anchor="start" style="cursor:default;color:#2C2C2C;font-size:9px;fill:#2C2C2C;" y="408"><tspan>Click legend items to change data display. Hover over chart to view data.</tspan><tspan x="10" dy="12">Source: Authors' calculations based on data from the Occupational Employment Statistics survey.</tspan></text></svg>